<svg width="1023" height="900" viewBox="0 0 1023 900" fill="none" xmlns="http://www.w3.org/2000/svg">
<path d="M414.5 388.5C570.1 265.7 587.892 70.9999 601.892 -1.50005C601.892 -1.50005 604.059 -31.8334 735.893 -52.5001C867.726 -73.1667 1210.89 -52.5001 1210.89 -52.5001C1210.89 -52.5001 1206.59 108 1147.39 108C1007.89 108 928.5 361 842 452.5C766.836 532.009 806.256 730.546 637.392 830C555.892 878 360.5 875 290 776C219.5 677 222 540.422 414.5 388.5Z" fill="#FF7200" fill-opacity="0.27"/>
<path d="M236.959 503.876C457.943 337.243 483.212 73.0462 503.095 -25.3321C503.095 -25.3321 506.173 -66.4927 693.403 -94.5362C880.633 -122.58 1368 -94.5362 1368 -94.5362C1368 -94.5362 1361.9 123.253 1277.82 123.253C1079.7 123.253 966.945 466.56 844.097 590.72C737.349 698.609 793.334 968.013 553.512 1102.97C437.765 1168.1 160.268 1164.03 60.144 1029.69C-39.9805 895.354 -36.4295 710.025 236.959 503.876Z" fill="#FF7200" fill-opacity="0.27"/>
</svg>
